<svg width="134" height="16" viewBox="0 0 134 16" fill="none" xmlns="http://www.w3.org/2000/svg">
<path d="M107.063 4.33864C105.285 4.33864 104.399 5.85177 104.399 6.87739V10.2056C104.399 11.0659 104.205 11.7339 103.822 12.1944C103.002 13.1812 101.563 12.9468 101.005 12.3884C100.496 11.879 100.541 10.8989 100.541 10.1685V5.14497C100.541 4.41792 99.7415 4.33695 99.7331 4.33695C97.9568 4.33695 97.0712 5.85008 97.0712 6.8757V11.0423C97.0712 12.1269 97.5789 15.7166 101.435 15.7166C103.75 15.7166 104.254 14.5965 104.409 14.3418V14.6522C104.409 15.0975 104.77 15.4602 105.215 15.4602H105.831C106.955 15.4602 107.867 14.5459 107.867 13.4241V5.14328C107.867 4.41624 107.068 4.33527 107.059 4.33527L107.063 4.33864Z" fill="#018762"/>
<path d="M104.52 0C104.095 0 103.692 0.192304 103.439 0.51787L102.014 3.00264C101.847 3.21687 101.788 3.47496 101.85 3.70944C101.951 4.08561 102.312 4.34876 102.726 4.34876C104.089 4.34876 105.315 3.31133 105.926 2.18788L106.442 1.23985C106.572 1.002 106.587 0.737164 106.484 0.51281C106.341 0.200738 106.015 0 105.654 0H104.52Z" fill="#018762"/>
<path d="M76.8776 6.49447H74.5919C74.2646 6.49447 73.4381 6.28698 73.4381 5.3204C73.4381 5.08761 73.5916 4.12609 74.5919 4.12609H78.4413C80.6798 4.12609 80.5955 1.79652 80.5955 1.79652C80.5955 1.36637 80.2446 1.0155 79.8145 1.0155H74.209C70.5535 1.0155 69.8231 4.19188 69.8231 5.42161C69.8231 7.19621 70.707 8.55583 72.1054 9.2272C72.7954 9.55783 73.5713 9.72652 74.4114 9.72652H76.5959C76.8742 9.72652 77.8914 9.92894 77.8914 11.0423C77.8914 11.2818 77.6957 12.3378 76.5959 12.3378H72.5643C70.3258 12.3378 70.4101 14.6674 70.4101 14.6674C70.4101 15.0975 70.761 15.4484 71.1912 15.4484H77.08C80.7962 15.4484 81.4862 12.1539 81.4862 10.7386C81.4862 6.97185 78.0348 6.49447 76.8776 6.49447Z" fill="#018762"/>
<path d="M94.8715 5.12978C94.8715 4.68614 94.5105 4.35551 94.0652 4.35551C94.0652 4.35551 92.2636 4.3302 91.8098 6.03732C91.2768 5.11797 90.3945 4.0991 88.2539 4.1126C85.9176 4.12778 84.6609 5.24449 83.8866 6.6699C83.1578 8.01096 83.1916 9.90195 83.1916 9.90195C83.1916 13.7025 85.5616 15.7166 88.2539 15.7166C90.5244 15.7166 91.4455 14.5729 91.7069 14.217C91.7069 14.217 91.5011 15.4602 92.4795 15.4602H93.0193C94.0584 15.4602 94.8715 14.6471 94.8715 13.6097V5.1281V5.12978ZM89.0535 12.8776C86.3106 12.8776 86.5603 9.83954 86.5603 9.83954C86.5603 7.71745 87.9418 7.11523 89.0535 7.11523C90.43 7.11523 91.5467 7.93506 91.5467 9.83954C91.5467 9.83954 91.8014 12.8776 89.0535 12.8776Z" fill="#018762"/>
<path d="M131.144 4.84133C129.705 3.97596 127.315 3.77691 125.365 4.87338C123.872 5.71344 122.745 7.34465 122.745 9.87833C122.745 9.87833 122.516 13.4511 125.399 15.057C127.194 16.0574 129.815 15.7267 130.853 15.219C132.669 14.3317 132.863 13.4376 132.84 13.0345C132.784 12.051 131.499 11.6259 131.499 11.6259C130.436 11.0693 130.508 12.859 128.461 12.859C126.6 12.859 126.112 11.6158 126.01 10.909H132.546C133.209 10.909 133.675 10.3608 133.675 9.77375C133.675 7.8777 132.981 5.94455 131.144 4.83964V4.84133ZM126.107 8.48329C126.107 8.11218 126.819 7.11524 128.309 7.11524C129.69 7.11524 130.444 7.80011 130.444 8.48329H126.107Z" fill="#018762"/>
<path d="M120.347 0.183869H120.331C119.648 0.183869 118.977 0.462203 118.486 0.94971C118.002 1.43047 117.735 2.05967 117.735 2.72261V5.2816C116.647 4.035 115.328 4.07211 114.544 4.07211C109.439 4.07211 109.539 9.8952 109.539 9.8952C109.539 15.1599 113.493 15.7014 114.544 15.7014C116.912 15.7014 117.545 14.5881 117.776 14.2963V14.637C117.776 15.0823 118.139 15.445 118.584 15.445H119.2C120.267 15.445 121.136 14.5763 121.136 13.5068V0.991882C121.136 0.549921 120.78 0.187242 120.345 0.183869H120.347ZM115.364 12.859C112.665 12.859 112.918 9.90364 112.918 9.90364C112.918 7.74275 114.262 7.09499 115.364 7.09499C116.561 7.09499 117.81 7.84228 117.81 9.8058C117.81 9.90364 118.128 12.859 115.364 12.859Z" fill="#018762"/>
<path d="M30.7871 15.9966C34.6079 15.9966 35.7246 13.3111 35.8781 12.9687C36.6845 11.1654 34.0968 10.9056 34.0968 10.9056C33.589 10.7977 33.0847 11.0861 32.9261 11.577C32.695 12.2939 32.1417 12.9788 30.8496 12.9788C28.6634 12.9788 28.385 11.1418 28.385 10.1651C28.385 10.1651 28.299 7.38176 30.8496 7.38176C32.4993 7.38176 32.8721 8.61655 32.9261 8.78355C33.0847 9.27443 33.5874 9.56289 34.0968 9.45493C34.1002 9.45493 36.6861 9.2019 35.8781 7.39188C35.0566 5.55319 33.3276 4.36563 30.7871 4.36563C24.7599 4.36563 25.0737 10.1668 25.0737 10.1668C25.0737 14.3755 28.0156 16 30.7871 16V15.9966Z" fill="#018762"/>
<path d="M60.9451 4.64396H60.3378C59.2565 4.64396 58.376 5.52283 58.376 6.60411V14.9238C58.376 15.3759 58.7437 15.7436 59.1958 15.7436H59.8115C60.9063 15.7436 61.7632 14.8496 61.7632 13.7075V5.46379C61.7632 5.0117 61.3955 4.64396 60.9434 4.64396H60.9451Z" fill="#018762"/>
<path d="M60.2383 0.836689H59.8284C58.9303 0.836689 58.2022 1.56474 58.2022 2.46284V2.46452C58.2022 3.36262 58.9303 4.09067 59.8284 4.09067H60.2383C61.1364 4.09067 61.8644 3.36262 61.8644 2.46452V2.46284C61.8644 1.56474 61.1364 0.836689 60.2383 0.836689Z" fill="#018762"/>
<path d="M41.0889 13.6822V9.37227C41.153 8.44618 41.7873 7.98735 43.523 7.98735C43.523 7.98735 45.5523 8.15941 45.5523 6.56025C45.5439 5.57681 45.6957 4.6389 44.7174 4.6389H44.3783C43.3189 4.6389 42.2916 5.04375 41.5393 5.78935C41.3908 5.93611 41.2407 6.10142 41.0906 6.28698C41.0906 6.20601 41.099 5.46716 41.0973 5.29678C41.0939 5.01845 40.8375 4.66083 40.3112 4.66083C40.2961 4.66083 40.0633 4.66927 39.9874 4.66927C39.2772 4.66927 37.6173 5.23437 37.6173 7.18608V14.8985C37.6173 15.3506 37.9833 15.7183 38.4371 15.7183H39.0528C40.178 15.7183 41.0889 14.8074 41.0889 13.6822Z" fill="#018762"/>
<path d="M23.3143 5.4098C23.3143 4.96616 22.9533 4.63553 22.508 4.63553C22.508 4.63553 20.7064 4.61023 20.2526 6.31734C19.7196 5.398 18.8373 4.37912 16.6967 4.39262C14.3604 4.4078 13.1036 5.52451 12.3294 6.94992C11.6006 8.29099 11.6344 10.182 11.6344 10.182C11.6344 13.9825 14.0044 15.9966 16.6967 15.9966C18.9672 15.9966 19.8882 14.8529 20.1497 14.497C20.1497 14.497 19.9439 15.7402 20.9223 15.7402H21.4621C22.5012 15.7402 23.3143 14.9271 23.3143 13.8897V5.40812V5.4098ZM17.4963 13.1576C14.7534 13.1576 15.0031 10.1196 15.0031 10.1196C15.0031 7.99747 16.3846 7.39525 17.4963 7.39525C18.8727 7.39525 19.9895 8.21508 19.9895 10.1196C19.9895 10.1196 20.2442 13.1576 17.4963 13.1576Z" fill="#018762"/>
<path d="M54.3241 5.12978C52.8852 4.26442 50.4949 4.06536 48.5449 5.16183C47.052 6.0019 45.9252 7.63311 45.9252 10.1668C45.9252 10.1668 45.6957 13.7396 48.5786 15.3455C50.3734 16.3458 52.9949 16.0152 54.0323 15.5074C55.849 14.6201 56.043 13.7261 56.0194 13.3229C55.9637 12.3395 54.6783 11.9144 54.6783 11.9144C53.6156 11.3577 53.6881 13.1475 51.6403 13.1475C49.7797 13.1475 49.2922 11.9043 49.1893 11.1975H55.7259C56.3888 11.1975 56.8544 10.6492 56.8544 10.0622C56.8544 8.16616 56.1611 6.233 54.3241 5.1281V5.12978ZM49.2871 8.77175C49.2871 8.40063 49.999 7.40369 51.4885 7.40369C52.87 7.40369 53.6241 8.08856 53.6241 8.77175H49.2871Z" fill="#018762"/>
<path d="M7.83216 15.6373C8.11386 15.6373 8.61318 15.585 8.82066 15.4855C10.3608 14.745 10.7049 12.4154 9.38745 12.4154H4.14128C3.77691 12.4154 3.48002 12.1185 3.48002 11.7541L3.51882 3.2641C3.51882 2.12209 2.58935 1.19262 1.44734 1.19262H0.877174C0.420031 1.19262 0 1.56542 0 2.02256L0.00843489 13.6013C0.00843489 14.7247 0.922719 15.6373 2.04449 15.6373H7.83216Z" fill="#018762"/>
</svg>
